<?xml version="1.0" encoding="UTF-8" standalone="no"?>
<!DOCTYPE svg PUBLIC "-//W3C//DTD SVG 1.1//EN"
 "http://www.w3.org/Graphics/SVG/1.1/DTD/svg11.dtd">
<!-- Generated by graphviz version 2.38.0 (20140413.2041)
 -->
<!-- Title: G Pages: 1 -->
<svg width="511pt" height="884pt"
 viewBox="0.00 0.00 511.28 884.00" xmlns="http://www.w3.org/2000/svg" xmlns:xlink="http://www.w3.org/1999/xlink">
<g id="graph0" class="graph" transform="scale(1 1) rotate(0) translate(4 880)">
<title>G</title>
<polygon fill="white" stroke="none" points="-4,4 -4,-880 507.277,-880 507.277,4 -4,4"/>
<g id="clust1" class="cluster"><title>cluster_Global</title>
<path fill="none" stroke="gray" d="M321.277,-8C321.277,-8 483.277,-8 483.277,-8 489.277,-8 495.277,-14 495.277,-20 495.277,-20 495.277,-856 495.277,-856 495.277,-862 489.277,-868 483.277,-868 483.277,-868 321.277,-868 321.277,-868 315.277,-868 309.277,-862 309.277,-856 309.277,-856 309.277,-20 309.277,-20 309.277,-14 315.277,-8 321.277,-8"/>
<text text-anchor="middle" x="402.277" y="-855.2" font-family="Times New Roman,serif" font-size="11.00" fill="gray">Global</text>
</g>
<g id="clust2" class="cluster"><title>cluster_\classes</title>
<path fill="none" stroke="gray" d="M329.277,-60C329.277,-60 475.277,-60 475.277,-60 481.277,-60 487.277,-66 487.277,-72 487.277,-72 487.277,-828 487.277,-828 487.277,-834 481.277,-840 475.277,-840 475.277,-840 329.277,-840 329.277,-840 323.277,-840 317.277,-834 317.277,-828 317.277,-828 317.277,-72 317.277,-72 317.277,-66 323.277,-60 329.277,-60"/>
<text text-anchor="middle" x="402.277" y="-827.2" font-family="Times New Roman,serif" font-size="11.00" fill="gray">classes</text>
</g>
<g id="clust3" class="cluster"><title>cluster_\classes\business</title>
<path fill="none" stroke="gray" d="M343.777,-578C343.777,-578 460.777,-578 460.777,-578 466.777,-578 472.777,-584 472.777,-590 472.777,-590 472.777,-800 472.777,-800 472.777,-806 466.777,-812 460.777,-812 460.777,-812 343.777,-812 343.777,-812 337.777,-812 331.777,-806 331.777,-800 331.777,-800 331.777,-590 331.777,-590 331.777,-584 337.777,-578 343.777,-578"/>
<text text-anchor="middle" x="402.277" y="-799.2" font-family="Times New Roman,serif" font-size="11.00" fill="gray">business</text>
</g>
<g id="clust4" class="cluster"><title>cluster_\classes\data</title>
<path fill="none" stroke="gray" d="M337.277,-390C337.277,-390 467.277,-390 467.277,-390 473.277,-390 479.277,-396 479.277,-402 479.277,-402 479.277,-558 479.277,-558 479.277,-564 473.277,-570 467.277,-570 467.277,-570 337.277,-570 337.277,-570 331.277,-570 325.277,-564 325.277,-558 325.277,-558 325.277,-402 325.277,-402 325.277,-396 331.277,-390 337.277,-390"/>
<text text-anchor="middle" x="402.277" y="-557.2" font-family="Times New Roman,serif" font-size="11.00" fill="gray">data</text>
</g>
<g id="clust5" class="cluster"><title>cluster_\classes\entity</title>
<path fill="none" stroke="gray" d="M367.777,-202C367.777,-202 436.777,-202 436.777,-202 442.777,-202 448.777,-208 448.777,-214 448.777,-214 448.777,-370 448.777,-370 448.777,-376 442.777,-382 436.777,-382 436.777,-382 367.777,-382 367.777,-382 361.777,-382 355.777,-376 355.777,-370 355.777,-370 355.777,-214 355.777,-214 355.777,-208 361.777,-202 367.777,-202"/>
<text text-anchor="middle" x="402.277" y="-369.2" font-family="Times New Roman,serif" font-size="11.00" fill="gray">entity</text>
</g>
<g id="clust6" class="cluster"><title>cluster_\classes\util</title>
<path fill="none" stroke="gray" d="M377.777,-68C377.777,-68 426.777,-68 426.777,-68 432.777,-68 438.777,-74 438.777,-80 438.777,-80 438.777,-182 438.777,-182 438.777,-188 432.777,-194 426.777,-194 426.777,-194 377.777,-194 377.777,-194 371.777,-194 365.777,-188 365.777,-182 365.777,-182 365.777,-80 365.777,-80 365.777,-74 371.777,-68 377.777,-68"/>
<text text-anchor="middle" x="402.277" y="-181.2" font-family="Times New Roman,serif" font-size="11.00" fill="gray">util</text>
</g>
<!-- \\classes\\business\\EmailSentManager -->
<g id="node1" class="node"><title>\\classes\\business\\EmailSentManager</title>
<polygon fill="none" stroke="black" points="464.777,-784 339.777,-784 339.777,-748 464.777,-748 464.777,-784"/>
<text text-anchor="middle" x="402.277" y="-763.2" font-family="Courier,monospace" font-size="11.00">EmailSentManager</text>
</g>
<!-- \\classes\\business\\FeedbackManager -->
<g id="node2" class="node"><title>\\classes\\business\\FeedbackManager</title>
<polygon fill="none" stroke="black" points="461.277,-730 343.277,-730 343.277,-694 461.277,-694 461.277,-730"/>
<text text-anchor="middle" x="402.277" y="-709.2" font-family="Courier,monospace" font-size="11.00">FeedbackManager</text>
</g>
<!-- \\classes\\business\\UserManager -->
<g id="node3" class="node"><title>\\classes\\business\\UserManager</title>
<polygon fill="none" stroke="black" points="447.777,-676 356.777,-676 356.777,-640 447.777,-640 447.777,-676"/>
<text text-anchor="middle" x="402.277" y="-655.2" font-family="Courier,monospace" font-size="11.00">UserManager</text>
</g>
<!-- \\classes\\business\\Validation -->
<g id="node4" class="node"><title>\\classes\\business\\Validation</title>
<polygon fill="none" stroke="black" points="444.277,-622 360.277,-622 360.277,-586 444.277,-586 444.277,-622"/>
<text text-anchor="middle" x="402.277" y="-601.2" font-family="Courier,monospace" font-size="11.00">Validation</text>
</g>
<!-- \\classes\\data\\EmailSentManagerDB -->
<g id="node5" class="node"><title>\\classes\\data\\EmailSentManagerDB</title>
<polygon fill="none" stroke="black" points="471.277,-542 333.277,-542 333.277,-506 471.277,-506 471.277,-542"/>
<text text-anchor="middle" x="402.277" y="-521.2" font-family="Courier,monospace" font-size="11.00">EmailSentManagerDB</text>
</g>
<!-- \\classes\\data\\FeedbackManagerDB -->
<g id="node6" class="node"><title>\\classes\\data\\FeedbackManagerDB</title>
<polygon fill="none" stroke="black" points="467.777,-488 336.777,-488 336.777,-452 467.777,-452 467.777,-488"/>
<text text-anchor="middle" x="402.277" y="-467.2" font-family="Courier,monospace" font-size="11.00">FeedbackManagerDB</text>
</g>
<!-- \\classes\\data\\UserManagerDB -->
<g id="node7" class="node"><title>\\classes\\data\\UserManagerDB</title>
<polygon fill="none" stroke="black" points="454.277,-434 350.277,-434 350.277,-398 454.277,-398 454.277,-434"/>
<text text-anchor="middle" x="402.277" y="-413.2" font-family="Courier,monospace" font-size="11.00">UserManagerDB</text>
</g>
<!-- \\classes\\entity\\EmailSent -->
<g id="node8" class="node"><title>\\classes\\entity\\EmailSent</title>
<polygon fill="none" stroke="black" points="440.777,-354 363.777,-354 363.777,-318 440.777,-318 440.777,-354"/>
<text text-anchor="middle" x="402.277" y="-333.2" font-family="Courier,monospace" font-size="11.00">EmailSent</text>
</g>
<!-- \\classes\\entity\\Feedback -->
<g id="node9" class="node"><title>\\classes\\entity\\Feedback</title>
<polygon fill="none" stroke="black" points="437.777,-300 366.777,-300 366.777,-264 437.777,-264 437.777,-300"/>
<text text-anchor="middle" x="402.277" y="-279.2" font-family="Courier,monospace" font-size="11.00">Feedback</text>
</g>
<!-- \\classes\\entity\\User -->
<g id="node10" class="node"><title>\\classes\\entity\\User</title>
<polygon fill="none" stroke="black" points="429.277,-246 375.277,-246 375.277,-210 429.277,-210 429.277,-246"/>
<text text-anchor="middle" x="402.277" y="-225.2" font-family="Courier,monospace" font-size="11.00">User</text>
</g>
<!-- \\classes\\util\\Config -->
<g id="node11" class="node"><title>\\classes\\util\\Config</title>
<polygon fill="none" stroke="black" points="430.777,-166 373.777,-166 373.777,-130 430.777,-130 430.777,-166"/>
<text text-anchor="middle" x="402.277" y="-145.2" font-family="Courier,monospace" font-size="11.00">Config</text>
</g>
<!-- \\classes\\util\\DBUtil -->
<g id="node12" class="node"><title>\\classes\\util\\DBUtil</title>
<polygon fill="none" stroke="black" points="430.777,-112 373.777,-112 373.777,-76 430.777,-76 430.777,-112"/>
<text text-anchor="middle" x="402.277" y="-91.2" font-family="Courier,monospace" font-size="11.00">DBUtil</text>
</g>
<!-- \\UserManagerTest -->
<g id="node13" class="node"><title>\\UserManagerTest</title>
<polygon fill="none" stroke="black" points="461.277,-52 343.277,-52 343.277,-16 461.277,-16 461.277,-52"/>
<text text-anchor="middle" x="402.277" y="-31.2" font-family="Courier,monospace" font-size="11.00">UserManagerTest</text>
</g>
<!-- \\PHPUnit_Framework_TestCase -->
<g id="node14" class="node"><title>\\PHPUnit_Framework_TestCase</title>
<ellipse fill="none" stroke="black" cx="130.638" cy="-34" rx="130.777" ry="18"/>
<text text-anchor="middle" x="130.638" y="-30.3" font-family="Times New Roman,serif" font-size="14.00" fill="gray">\PHPUnit_Framework_TestCase</text>
</g>
<!-- \\UserManagerTest&#45;&gt;\\PHPUnit_Framework_TestCase -->
<g id="edge1" class="edge"><title>\\UserManagerTest&#45;&gt;\\PHPUnit_Framework_TestCase</title>
<path fill="none" stroke="black" d="M343.101,-34C321.848,-34 296.79,-34 271.496,-34"/>
<polygon fill="none" stroke="black" points="271.418,-30.5001 261.418,-34 271.418,-37.5001 271.418,-30.5001"/>
</g>
</g>
</svg>
