<?xml version="1.0" encoding="UTF-8" standalone="no"?>
<!DOCTYPE svg PUBLIC "-//W3C//DTD SVG 1.1//EN"
 "http://www.w3.org/Graphics/SVG/1.1/DTD/svg11.dtd">
<!-- Generated by graphviz version 2.38.0 (20140413.2041)
 -->
<!-- Title: G Pages: 1 -->
<svg width="511pt" height="992pt"
 viewBox="0.00 0.00 511.28 992.00" xmlns="http://www.w3.org/2000/svg" xmlns:xlink="http://www.w3.org/1999/xlink">
<g id="graph0" class="graph" transform="scale(1 1) rotate(0) translate(4 988)">
<title>G</title>
<polygon fill="white" stroke="none" points="-4,4 -4,-988 507.277,-988 507.277,4 -4,4"/>
<g id="clust1" class="cluster"><title>cluster_Global</title>
<path fill="none" stroke="gray" d="M321.277,-8C321.277,-8 483.277,-8 483.277,-8 489.277,-8 495.277,-14 495.277,-20 495.277,-20 495.277,-964 495.277,-964 495.277,-970 489.277,-976 483.277,-976 483.277,-976 321.277,-976 321.277,-976 315.277,-976 309.277,-970 309.277,-964 309.277,-964 309.277,-20 309.277,-20 309.277,-14 315.277,-8 321.277,-8"/>
<text text-anchor="middle" x="402.277" y="-963.2" font-family="Times New Roman,serif" font-size="11.00" fill="gray">Global</text>
</g>
<g id="clust2" class="cluster"><title>cluster_\classes</title>
<path fill="none" stroke="gray" d="M329.277,-168C329.277,-168 475.277,-168 475.277,-168 481.277,-168 487.277,-174 487.277,-180 487.277,-180 487.277,-936 487.277,-936 487.277,-942 481.277,-948 475.277,-948 475.277,-948 329.277,-948 329.277,-948 323.277,-948 317.277,-942 317.277,-936 317.277,-936 317.277,-180 317.277,-180 317.277,-174 323.277,-168 329.277,-168"/>
<text text-anchor="middle" x="402.277" y="-935.2" font-family="Times New Roman,serif" font-size="11.00" fill="gray">classes</text>
</g>
<g id="clust3" class="cluster"><title>cluster_\classes\business</title>
<path fill="none" stroke="gray" d="M343.777,-686C343.777,-686 460.777,-686 460.777,-686 466.777,-686 472.777,-692 472.777,-698 472.777,-698 472.777,-908 472.777,-908 472.777,-914 466.777,-920 460.777,-920 460.777,-920 343.777,-920 343.777,-920 337.777,-920 331.777,-914 331.777,-908 331.777,-908 331.777,-698 331.777,-698 331.777,-692 337.777,-686 343.777,-686"/>
<text text-anchor="middle" x="402.277" y="-907.2" font-family="Times New Roman,serif" font-size="11.00" fill="gray">business</text>
</g>
<g id="clust4" class="cluster"><title>cluster_\classes\data</title>
<path fill="none" stroke="gray" d="M337.277,-498C337.277,-498 467.277,-498 467.277,-498 473.277,-498 479.277,-504 479.277,-510 479.277,-510 479.277,-666 479.277,-666 479.277,-672 473.277,-678 467.277,-678 467.277,-678 337.277,-678 337.277,-678 331.277,-678 325.277,-672 325.277,-666 325.277,-666 325.277,-510 325.277,-510 325.277,-504 331.277,-498 337.277,-498"/>
<text text-anchor="middle" x="402.277" y="-665.2" font-family="Times New Roman,serif" font-size="11.00" fill="gray">data</text>
</g>
<g id="clust5" class="cluster"><title>cluster_\classes\entity</title>
<path fill="none" stroke="gray" d="M367.777,-310C367.777,-310 436.777,-310 436.777,-310 442.777,-310 448.777,-316 448.777,-322 448.777,-322 448.777,-478 448.777,-478 448.777,-484 442.777,-490 436.777,-490 436.777,-490 367.777,-490 367.777,-490 361.777,-490 355.777,-484 355.777,-478 355.777,-478 355.777,-322 355.777,-322 355.777,-316 361.777,-310 367.777,-310"/>
<text text-anchor="middle" x="402.277" y="-477.2" font-family="Times New Roman,serif" font-size="11.00" fill="gray">entity</text>
</g>
<g id="clust6" class="cluster"><title>cluster_\classes\util</title>
<path fill="none" stroke="gray" d="M377.777,-176C377.777,-176 426.777,-176 426.777,-176 432.777,-176 438.777,-182 438.777,-188 438.777,-188 438.777,-290 438.777,-290 438.777,-296 432.777,-302 426.777,-302 426.777,-302 377.777,-302 377.777,-302 371.777,-302 365.777,-296 365.777,-290 365.777,-290 365.777,-188 365.777,-188 365.777,-182 371.777,-176 377.777,-176"/>
<text text-anchor="middle" x="402.277" y="-289.2" font-family="Times New Roman,serif" font-size="11.00" fill="gray">util</text>
</g>
<!-- \\classes\\business\\EmailSentManager -->
<g id="node1" class="node"><title>\\classes\\business\\EmailSentManager</title>
<polygon fill="none" stroke="black" points="464.777,-892 339.777,-892 339.777,-856 464.777,-856 464.777,-892"/>
<text text-anchor="middle" x="402.277" y="-871.2" font-family="Courier,monospace" font-size="11.00">EmailSentManager</text>
</g>
<!-- \\classes\\business\\FeedbackManager -->
<g id="node2" class="node"><title>\\classes\\business\\FeedbackManager</title>
<polygon fill="none" stroke="black" points="461.277,-838 343.277,-838 343.277,-802 461.277,-802 461.277,-838"/>
<text text-anchor="middle" x="402.277" y="-817.2" font-family="Courier,monospace" font-size="11.00">FeedbackManager</text>
</g>
<!-- \\classes\\business\\UserManager -->
<g id="node3" class="node"><title>\\classes\\business\\UserManager</title>
<polygon fill="none" stroke="black" points="447.777,-784 356.777,-784 356.777,-748 447.777,-748 447.777,-784"/>
<text text-anchor="middle" x="402.277" y="-763.2" font-family="Courier,monospace" font-size="11.00">UserManager</text>
</g>
<!-- \\classes\\business\\Validation -->
<g id="node4" class="node"><title>\\classes\\business\\Validation</title>
<polygon fill="none" stroke="black" points="444.277,-730 360.277,-730 360.277,-694 444.277,-694 444.277,-730"/>
<text text-anchor="middle" x="402.277" y="-709.2" font-family="Courier,monospace" font-size="11.00">Validation</text>
</g>
<!-- \\classes\\data\\EmailSentManagerDB -->
<g id="node5" class="node"><title>\\classes\\data\\EmailSentManagerDB</title>
<polygon fill="none" stroke="black" points="471.277,-650 333.277,-650 333.277,-614 471.277,-614 471.277,-650"/>
<text text-anchor="middle" x="402.277" y="-629.2" font-family="Courier,monospace" font-size="11.00">EmailSentManagerDB</text>
</g>
<!-- \\classes\\data\\FeedbackManagerDB -->
<g id="node6" class="node"><title>\\classes\\data\\FeedbackManagerDB</title>
<polygon fill="none" stroke="black" points="467.777,-596 336.777,-596 336.777,-560 467.777,-560 467.777,-596"/>
<text text-anchor="middle" x="402.277" y="-575.2" font-family="Courier,monospace" font-size="11.00">FeedbackManagerDB</text>
</g>
<!-- \\classes\\data\\UserManagerDB -->
<g id="node7" class="node"><title>\\classes\\data\\UserManagerDB</title>
<polygon fill="none" stroke="black" points="454.277,-542 350.277,-542 350.277,-506 454.277,-506 454.277,-542"/>
<text text-anchor="middle" x="402.277" y="-521.2" font-family="Courier,monospace" font-size="11.00">UserManagerDB</text>
</g>
<!-- \\classes\\entity\\EmailSent -->
<g id="node8" class="node"><title>\\classes\\entity\\EmailSent</title>
<polygon fill="none" stroke="black" points="440.777,-462 363.777,-462 363.777,-426 440.777,-426 440.777,-462"/>
<text text-anchor="middle" x="402.277" y="-441.2" font-family="Courier,monospace" font-size="11.00">EmailSent</text>
</g>
<!-- \\classes\\entity\\Feedback -->
<g id="node9" class="node"><title>\\classes\\entity\\Feedback</title>
<polygon fill="none" stroke="black" points="437.777,-408 366.777,-408 366.777,-372 437.777,-372 437.777,-408"/>
<text text-anchor="middle" x="402.277" y="-387.2" font-family="Courier,monospace" font-size="11.00">Feedback</text>
</g>
<!-- \\classes\\entity\\User -->
<g id="node10" class="node"><title>\\classes\\entity\\User</title>
<polygon fill="none" stroke="black" points="429.277,-354 375.277,-354 375.277,-318 429.277,-318 429.277,-354"/>
<text text-anchor="middle" x="402.277" y="-333.2" font-family="Courier,monospace" font-size="11.00">User</text>
</g>
<!-- \\classes\\util\\Config -->
<g id="node11" class="node"><title>\\classes\\util\\Config</title>
<polygon fill="none" stroke="black" points="430.777,-274 373.777,-274 373.777,-238 430.777,-238 430.777,-274"/>
<text text-anchor="middle" x="402.277" y="-253.2" font-family="Courier,monospace" font-size="11.00">Config</text>
</g>
<!-- \\classes\\util\\DBUtil -->
<g id="node12" class="node"><title>\\classes\\util\\DBUtil</title>
<polygon fill="none" stroke="black" points="430.777,-220 373.777,-220 373.777,-184 430.777,-184 430.777,-220"/>
<text text-anchor="middle" x="402.277" y="-199.2" font-family="Courier,monospace" font-size="11.00">DBUtil</text>
</g>
<!-- \\UserManagerTest -->
<g id="node13" class="node"><title>\\UserManagerTest</title>
<polygon fill="none" stroke="black" points="461.277,-160 343.277,-160 343.277,-124 461.277,-124 461.277,-160"/>
<text text-anchor="middle" x="402.277" y="-139.2" font-family="Courier,monospace" font-size="11.00">UserManagerTest</text>
</g>
<!-- \\PHPUnit_Framework_TestCase -->
<g id="node16" class="node"><title>\\PHPUnit_Framework_TestCase</title>
<ellipse fill="none" stroke="black" cx="130.638" cy="-88" rx="130.777" ry="18"/>
<text text-anchor="middle" x="130.638" y="-84.3" font-family="Times New Roman,serif" font-size="14.00" fill="gray">\PHPUnit_Framework_TestCase</text>
</g>
<!-- \\UserManagerTest&#45;&gt;\\PHPUnit_Framework_TestCase -->
<g id="edge1" class="edge"><title>\\UserManagerTest&#45;&gt;\\PHPUnit_Framework_TestCase</title>
<path fill="none" stroke="black" d="M343.101,-130.349C305.836,-122.886 256.873,-113.081 215.447,-104.784"/>
<polygon fill="none" stroke="black" points="216.131,-101.352 205.639,-102.82 214.757,-108.216 216.131,-101.352"/>
</g>
<!-- \\BulkEmail -->
<g id="node14" class="node"><title>\\BulkEmail</title>
<polygon fill="none" stroke="black" points="440.777,-106 363.777,-106 363.777,-70 440.777,-70 440.777,-106"/>
<text text-anchor="middle" x="402.277" y="-85.2" font-family="Courier,monospace" font-size="11.00">BulkEmail</text>
</g>
<!-- \\BulkEmailTest -->
<g id="node15" class="node"><title>\\BulkEmailTest</title>
<polygon fill="none" stroke="black" points="454.277,-52 350.277,-52 350.277,-16 454.277,-16 454.277,-52"/>
<text text-anchor="middle" x="402.277" y="-31.2" font-family="Courier,monospace" font-size="11.00">BulkEmailTest</text>
</g>
<!-- \\BulkEmailTest&#45;&gt;\\PHPUnit_Framework_TestCase -->
<g id="edge2" class="edge"><title>\\BulkEmailTest&#45;&gt;\\PHPUnit_Framework_TestCase</title>
<path fill="none" stroke="black" d="M350.243,-44.2205C312.202,-51.8388 259.417,-62.41 215.246,-71.256"/>
<polygon fill="none" stroke="black" points="214.5,-67.8358 205.382,-73.2314 215.875,-74.6995 214.5,-67.8358"/>
</g>
</g>
</svg>
